<svg width="20" height="20" viewBox="0 0 20 20" fill="none" xmlns="http://www.w3.org/2000/svg">
<path fill-rule="evenodd" clip-rule="evenodd" d="M5.87524 2.54204C6.9692 1.44808 8.45293 0.833496 10 0.833496C11.5471 0.833496 13.0309 1.44808 14.1248 2.54204C15.2188 3.636 15.8334 5.11973 15.8334 6.66683C15.8334 9.46071 16.4309 11.1957 16.9816 12.2053C17.2581 12.7122 17.5273 13.0447 17.7144 13.2421C17.8081 13.3411 17.8817 13.4067 17.9261 13.4436C17.9483 13.4621 17.9632 13.4735 17.9696 13.4782C17.9706 13.479 17.9714 13.4796 17.9719 13.48C18.2707 13.6852 18.4029 14.0606 18.2976 14.4083C18.1912 14.7598 17.8672 15.0002 17.5 15.0002H2.50002C2.1328 15.0002 1.80886 14.7598 1.70245 14.4083C1.59716 14.0606 1.72936 13.6852 2.0281 13.48C2.02868 13.4796 2.02948 13.479 2.03048 13.4782C2.0369 13.4735 2.05177 13.4621 2.07396 13.4436C2.11831 13.4067 2.19196 13.3411 2.28569 13.2421C2.47271 13.0447 2.74195 12.7122 3.01844 12.2053C3.56913 11.1957 4.16669 9.46071 4.16669 6.66683C4.16669 5.11973 4.78127 3.636 5.87524 2.54204ZM2.03652 13.4743C2.03659 13.4742 2.03665 13.4742 2.03672 13.4742C2.03672 13.4742 2.03671 13.4742 2.03671 13.4742L2.03652 13.4743ZM4.29113 13.3335H15.7089C15.6455 13.2296 15.5819 13.1196 15.5184 13.0034C14.8191 11.7213 14.1667 9.70628 14.1667 6.66683C14.1667 5.56176 13.7277 4.50195 12.9463 3.72055C12.1649 2.93915 11.1051 2.50016 10 2.50016C8.89496 2.50016 7.83515 2.93915 7.05375 3.72055C6.27234 4.50195 5.83336 5.56176 5.83336 6.66683C5.83336 9.70628 5.18091 11.7213 4.4816 13.0034C4.41819 13.1196 4.35453 13.2296 4.29113 13.3335Z" fill="#364960"/>
<path fill-rule="evenodd" clip-rule="evenodd" d="M8.14018 16.7791C8.53829 16.5482 9.04822 16.6837 9.27916 17.0818C9.35241 17.2081 9.45756 17.3129 9.58406 17.3858C9.71057 17.4587 9.854 17.497 9.99999 17.497C10.146 17.497 10.2894 17.4587 10.4159 17.3858C10.5424 17.3129 10.6476 17.2081 10.7208 17.0818C10.9518 16.6837 11.4617 16.5482 11.8598 16.7791C12.2579 17.0101 12.3934 17.52 12.1625 17.9181C11.9427 18.297 11.6273 18.6114 11.2478 18.83C10.8683 19.0486 10.438 19.1637 9.99999 19.1637C9.56202 19.1637 9.13173 19.0486 8.75221 18.83C8.37269 18.6114 8.05725 18.297 7.83749 17.9181C7.60656 17.52 7.74208 17.0101 8.14018 16.7791Z" fill="#364960"/>
</svg>
