<svg width="16" height="16" viewBox="0 0 16 16" fill="none" xmlns="http://www.w3.org/2000/svg">
<path d="M1.77778 1H14.2222C14.4285 1 14.6263 1.08324 14.7722 1.23142C14.9181 1.37959 15 1.58056 15 1.79011V3.04323C15 3.25277 14.918 3.4537 14.7721 3.60184L9.78344 8.66963C9.63757 8.81777 9.5556 9.01871 9.55556 9.22824V14.2099C9.55555 14.33 9.5286 14.4485 9.47674 14.5565C9.42488 14.6644 9.34948 14.7589 9.25628 14.8328C9.16307 14.9067 9.05451 14.958 8.93885 14.9829C8.82318 15.0077 8.70346 15.0055 8.58878 14.9763L7.03322 14.5813C6.86503 14.5385 6.71574 14.4398 6.60907 14.3009C6.50239 14.1621 6.44445 13.991 6.44444 13.8149V9.22824C6.4444 9.01871 6.36243 8.81777 6.21656 8.66963L1.22789 3.60184C1.08202 3.4537 1.00004 3.25277 1 3.04323V1.79011C1 1.58056 1.08194 1.37959 1.22781 1.23142C1.37367 1.08324 1.5715 1 1.77778 1Z" stroke="#364960" stroke-width="1.5" stroke-linecap="round" stroke-linejoin="round"/>
</svg>
