<svg width="20" height="21" viewBox="0 0 20 21" fill="none" xmlns="http://www.w3.org/2000/svg">
<path d="M2.49998 18.8332C2.28331 18.8332 2.06665 18.7498 1.90831 18.5915C1.68331 18.3665 1.60831 18.0415 1.70831 17.7415L3.18331 13.3082C2.73331 12.2915 2.49998 11.1915 2.49998 10.0832C2.49998 8.6165 2.90831 7.17484 3.68331 5.92484C4.45831 4.67484 5.55831 3.6665 6.87498 3.00817C7.96665 2.45817 9.18331 2.1665 10.4 2.1665C10.4083 2.1665 10.4166 2.1665 10.4166 2.1665H10.8333C12.825 2.27484 14.65 3.0915 16.0333 4.4665C17.4083 5.8415 18.225 7.67484 18.3333 9.6165V10.0748C18.3333 11.2998 18.05 12.5248 17.4916 13.6165C16.8333 14.9332 15.825 16.0332 14.575 16.8082C13.325 17.5915 11.8916 17.9998 10.4166 17.9998C9.31665 18.0415 8.20831 17.7665 7.19165 17.3165L2.75831 18.7915C2.67498 18.8165 2.59165 18.8332 2.49998 18.8332ZM10.4 3.83317C9.44165 3.83317 8.48331 4.05817 7.62498 4.4915C6.58331 5.0165 5.71665 5.80817 5.09998 6.79984C4.49165 7.78317 4.16665 8.92484 4.16665 10.0832C4.16665 11.0498 4.39165 12.0165 4.82498 12.8748C4.92498 13.0748 4.94165 13.2998 4.87498 13.5165L3.81665 16.6832L6.98331 15.6248C7.19165 15.5582 7.42498 15.5748 7.62498 15.6748C8.48331 16.1082 9.44165 16.3332 10.4 16.3332C10.4083 16.3332 10.4083 16.3332 10.4166 16.3332C11.5833 16.3332 12.7166 16.0082 13.7083 15.3998C14.6916 14.7915 15.4916 13.9165 16.0083 12.8748C16.4416 12.0165 16.6666 11.0498 16.6666 10.0832V9.6665C16.5833 8.17484 15.9416 6.73317 14.85 5.64984C13.7666 4.5665 12.3166 3.9165 10.7833 3.83317H10.4166C10.4083 3.83317 10.4083 3.83317 10.4 3.83317Z" fill="#364960"/>
</svg>
