<svg width="12" height="12" viewBox="0 0 12 12" fill="none" xmlns="http://www.w3.org/2000/svg">
<path d="M4.6553 2.00806L4.66081 2.00358L4.66619 1.99895L5.4554 1.31963C5.45553 1.31951 5.45566 1.3194 5.4558 1.31929C5.75845 1.06023 6.24657 1.06024 6.54922 1.3193C6.54935 1.31941 6.54948 1.31952 6.5496 1.31963L7.33774 1.99802C7.4479 2.09368 7.58664 2.15362 7.67919 2.18685C7.77461 2.2211 7.91369 2.26 8.05 2.26H8.9C9.36386 2.26 9.74 2.63614 9.74 3.1V3.95C9.74 4.09169 9.78307 4.23433 9.81825 4.32788C9.85331 4.42111 9.91445 4.55575 10.007 4.66233L10.6854 5.4504C10.6855 5.4505 10.6855 5.4506 10.6856 5.4507C10.9448 5.75337 10.9448 6.24163 10.6856 6.54431C10.6855 6.54441 10.6855 6.54451 10.6854 6.54461L10.0071 7.33265C9.91446 7.43924 9.85331 7.57389 9.81825 7.66713C9.78307 7.76068 9.74 7.90331 9.74 8.045V8.895C9.74 9.35886 9.36386 9.735 8.9 9.735H8.05C7.9089 9.735 7.76667 9.77786 7.67564 9.81132C7.58296 9.84538 7.45282 9.90316 7.3497 9.98695L7.34419 9.99142L7.33881 9.99605L6.54882 10.6761L6.5488 10.676L6.54521 10.6792C6.40038 10.8063 6.20611 10.875 6 10.875C5.7936 10.875 5.5971 10.806 5.4507 10.6806C5.4506 10.6805 5.4505 10.6805 5.4504 10.6804L4.66228 10.002C4.55212 9.90633 4.41337 9.84638 4.32081 9.81316C4.2254 9.7789 4.08631 9.74 3.95 9.74H3.09C2.62614 9.74 2.25 9.36386 2.25 8.9V8.045C2.25 7.90764 2.21059 7.76905 2.17591 7.6741C2.1421 7.58152 2.08256 7.44727 1.98948 7.33942L1.31684 6.54721C1.31673 6.54707 1.31662 6.54694 1.3165 6.5468C1.0645 6.24826 1.0645 5.75675 1.3165 5.4582C1.31662 5.45807 1.31673 5.45793 1.31684 5.4578L1.98948 4.66559C2.08256 4.55773 2.1421 4.42348 2.17591 4.3309C2.21059 4.23596 2.25 4.09737 2.25 3.96V3.1C2.25 2.63614 2.62614 2.26 3.09 2.26H3.955C4.0961 2.26 4.23833 2.21714 4.32936 2.18368C4.42204 2.14962 4.55218 2.09184 4.6553 2.00806Z" fill="#5DC482" stroke="#5DC482"/>
<path d="M5.39503 7.58514C5.29503 7.58514 5.20003 7.54514 5.13003 7.47514L3.92003 6.26514C3.77503 6.12014 3.77503 5.88014 3.92003 5.73514C4.06503 5.59014 4.30503 5.59014 4.45003 5.73514L5.39503 6.68014L7.54503 4.53014C7.69003 4.38514 7.93003 4.38514 8.07503 4.53014C8.22003 4.67514 8.22003 4.91514 8.07503 5.06014L5.66003 7.47514C5.59003 7.54514 5.49503 7.58514 5.39503 7.58514Z" fill="white"/>
</svg>
