<svg width="5" height="7" viewBox="0 0 5 7" fill="none" xmlns="http://www.w3.org/2000/svg">
<path d="M0.704 6.556C0.597333 6.556 0.509333 6.52933 0.44 6.476C0.370667 6.41733 0.330667 6.34533 0.32 6.26C0.309333 6.16933 0.338667 6.07867 0.408 5.988L2.296 3.452V3.788L0.512 1.388C0.442667 1.292 0.410667 1.19867 0.416 1.108C0.426667 1.01733 0.466667 0.945333 0.536 0.892C0.605333 0.833333 0.690667 0.804 0.792 0.804C0.877333 0.804 0.952 0.825333 1.016 0.868C1.08533 0.905333 1.15467 0.972 1.224 1.068L2.776 3.196H2.52L4.056 1.068C4.12533 0.972 4.192 0.905333 4.256 0.868C4.32533 0.825333 4.40533 0.804 4.496 0.804C4.60267 0.804 4.69067 0.833333 4.76 0.892C4.82933 0.945333 4.86667 1.01733 4.872 1.108C4.88267 1.19333 4.85067 1.28667 4.776 1.388L2.992 3.788V3.452L4.872 5.988C4.94133 6.07867 4.97067 6.16933 4.96 6.26C4.95467 6.34533 4.91733 6.41733 4.848 6.476C4.77867 6.52933 4.688 6.556 4.576 6.556C4.496 6.556 4.42133 6.53467 4.352 6.492C4.28267 6.44933 4.21067 6.38267 4.136 6.292L2.488 4.036H2.792L1.152 6.292C1.08267 6.38267 1.01067 6.44933 0.936 6.492C0.866667 6.53467 0.789333 6.556 0.704 6.556Z" fill="white"/>
</svg>
