<svg width="18" height="18" viewBox="0 0 18 18" fill="none" xmlns="http://www.w3.org/2000/svg">
<rect width="18" height="18" rx="9" fill="black"/>
<path d="M6.704 11.556C6.59733 11.556 6.50933 11.5293 6.44 11.476C6.37067 11.4173 6.33067 11.3453 6.32 11.26C6.30933 11.1693 6.33867 11.0787 6.408 10.988L8.296 8.452V8.788L6.512 6.388C6.44267 6.292 6.41067 6.19867 6.416 6.108C6.42667 6.01733 6.46667 5.94533 6.536 5.892C6.60533 5.83333 6.69067 5.804 6.792 5.804C6.87733 5.804 6.952 5.82533 7.016 5.868C7.08533 5.90533 7.15467 5.972 7.224 6.068L8.776 8.196H8.52L10.056 6.068C10.1253 5.972 10.192 5.90533 10.256 5.868C10.3253 5.82533 10.4053 5.804 10.496 5.804C10.6027 5.804 10.6907 5.83333 10.76 5.892C10.8293 5.94533 10.8667 6.01733 10.872 6.108C10.8827 6.19333 10.8507 6.28667 10.776 6.388L8.992 8.788V8.452L10.872 10.988C10.9413 11.0787 10.9707 11.1693 10.96 11.26C10.9547 11.3453 10.9173 11.4173 10.848 11.476C10.7787 11.5293 10.688 11.556 10.576 11.556C10.496 11.556 10.4213 11.5347 10.352 11.492C10.2827 11.4493 10.2107 11.3827 10.136 11.292L8.488 9.036H8.792L7.152 11.292C7.08267 11.3827 7.01067 11.4493 6.936 11.492C6.86667 11.5347 6.78933 11.556 6.704 11.556Z" fill="white"/>
</svg>
